<svg version="1.1" id="Logo" xmlns="http://www.w3.org/2000/svg" xmlns:xlink="http://www.w3.org/1999/xlink" x="0px" y="0px" viewBox="0 0 3000 1500" style="enable-background:new 0 0 3000 1500;" xml:space="preserve">
 <style type="text/css">
  .st0{fill:#F55800;}
	.st1{fill:#FFA450;}
	.st2{fill:#C63D22;}
	.st3{fill:#25223B;}
 </style>
 <g>
  <g>
   <g>
    <g>
     <polygon class="st0" points="1010.72,474.59 842.29,860.91 839.48,860.91 821.62,701.11 733.49,898.57 739.72,944.8 
					917.91,944.8 1127.77,474.59 				">
     </polygon>
     <polygon class="st1" points="821.61,701.11 821.62,701.11 922.71,474.61 805.67,474.61 637.23,860.93 634.42,860.93 
					616.08,701.13 501.85,701.13 534.66,944.82 712.85,944.82 733.49,898.57 706.91,701.11 				">
     </polygon>
     <polygon class="st2" points="821.62,701.11 706.91,701.11 733.49,898.57 821.24,701.97 				">
     </polygon>
    </g>
   </g>
  </g>
  <g>
   <g>
    <g>
     <path class="st3" d="M1281.01,701.22l-116.22,243.69h-70.77l-14.53-149.97l-67.02,149.97h-67.49l-32.8-243.69h63.74
					l17.34,159.81h2.81l69.36-159.81h61.86l14.53,159.81h2.81l70.77-159.81H1281.01z">
     </path>
     <path class="st3" d="M1312.4,601.87h65.61l-22.49,126.07c18.28-20.62,43.58-31.4,73.11-31.4c46.4,0,78.26,26.71,78.26,73.11
					c0,14.06-2.81,30.93-5.62,45.93l-23.43,129.35h-64.2l22.49-127.94c1.41-8.43,3.75-18.28,3.75-29.06
					c0-20.62-7.97-38.9-37.49-38.9c-33.27,0-54.36,22.96-59.99,54.83l-24.84,141.06h-65.61L1312.4,601.87z">
     </path>
     <path class="st3" d="M1693.64,944.92l4.2-23.33c-13.07,17.91-39.81,28.02-70.74,28.02c-68.42,0-111.07-49.21-111.07-118.1
					c0-75.92,52.49-134.97,131.69-134.97c44.99,0,69.36,19.21,82.01,41.24l6.52-36.55h58.16l-33.74,191.21l-8.6,52.49H1693.64z
					 M1717.08,815.1c0-38.43-22.03-67.49-64.2-67.49c-51.08,0-73.58,42.18-73.58,82.95c0,41.24,23.43,67.95,62.8,67.95
					C1691.3,898.52,1717.08,856.81,1717.08,815.1z">
     </path>
     <path class="st3" d="M1915.77,630.92l-12.65,70.3h62.8l-7.97,47.8h-62.8l-21.09,120.44c-3.28,18.75,1.41,30.46,21.56,30.46
					c9.37,0,25.1-3.16,35.88-6.91l-8.07,46.31c-8.9,4.22-22.19,10.27-53.12,10.27c-60.92,0-67.95-39.84-59.52-88.1l19.68-112.47
					h-34.21l9.04-47.8h34.07l22.96-70.3H1915.77z">
     </path>
     <path class="st3" d="M2243.63,701.22l-43.12,243.69h-64.2l34.19-195.36l-28.89-0.65l8.76-47.69H2243.63z M2213.17,597.18
					c19.68,0,35.62,15.94,35.62,35.62c0,19.68-15.93,35.62-35.62,35.62c-19.68,0-35.62-15.93-35.62-35.62
					C2177.55,613.12,2193.49,597.18,2213.17,597.18z">
     </path>
     <path class="st3" d="M2326.11,818.85l-63.74-117.63h69.83l37.02,74.98l56.24-74.98h76.39l-102.17,122.32l62.8,121.38h-68.42
					l-38.43-79.2l-59.99,79.2h-76.86L2326.11,818.85z">
     </path>
     <path class="st3" d="M1956.31,975.38c18.75-2.34,24.84-13.12,27.65-28.12l34.21-198.24h-37.49l6.56-47.8h39.83l3.75-21.56
					c7.03-37.96,23.43-82.48,83.89-82.48c21.34,0,38.68,4.96,38.68,4.96l-7.91,45.51c-8.31-1.05-12.03-1.73-20-1.73
					c-23.9,0-26.71,13.12-29.99,30.93l-4.22,24.37h44.52l-8.44,47.8h-44.52l-35.62,200.11c-8.9,51.08-26.96,80-99.82,75.89
					L1956.31,975.38z">
     </path>
    </g>
   </g>
  </g>
 </g>
</svg>